<?xml version="1.0" encoding="UTF-8"?>
<!DOCTYPE svg PUBLIC "-//W3C//DTD SVG 1.1//EN" "http://www.w3.org/Graphics/SVG/1.1/DTD/svg11.dtd">
<svg xmlns="http://www.w3.org/2000/svg" version="1.1" width="1200px" height="2038px" style="shape-rendering:geometricPrecision; text-rendering:geometricPrecision; image-rendering:optimizeQuality; fill-rule:evenodd; clip-rule:evenodd" xmlns:xlink="http://www.w3.org/1999/xlink">
<g><path style="opacity:0.978" fill="#010100" d="M 588.5,10.5 C 592.382,11.2108 594.882,13.5442 596,17.5C 599.301,29.6404 601.635,41.9737 603,54.5C 603.308,55.3081 603.808,55.9747 604.5,56.5C 672.312,28.0939 730.812,41.0939 780,95.5C 786.359,103.693 792.526,112.026 798.5,120.5C 808.833,111 819.167,101.5 829.5,92C 839.46,86.6202 842.96,89.4535 840,100.5C 837.514,108.303 834.347,115.803 830.5,123C 854.602,118.877 877.269,122.877 898.5,135C 913.771,147.359 923.604,163.193 928,182.5C 959.788,172.551 991.288,173.384 1022.5,185C 1032.45,189.219 1041.28,195.052 1049,202.5C 1056.61,197.196 1064.94,193.53 1074,191.5C 1076.37,191.977 1077.54,193.477 1077.5,196C 1077.39,198.732 1076.55,201.232 1075,203.5C 1070.88,209.291 1066.38,214.791 1061.5,220C 1065.89,226.647 1069.22,233.814 1071.5,241.5C 1097.38,244.187 1118.88,255.187 1136,274.5C 1155.8,305.906 1155.13,336.906 1134,367.5C 1110.32,393.06 1081.15,402.894 1046.5,397C 1028.98,394.071 1012.31,388.571 996.5,380.5C 965.01,395.261 932.677,397.427 899.5,387C 896.048,385.774 892.715,384.274 889.5,382.5C 875.846,388.989 862.846,396.489 850.5,405C 836.552,418.609 823.718,433.109 812,448.5C 809.463,451.372 806.63,453.872 803.5,456C 812.373,454.093 821.373,452.427 830.5,451C 834.667,450.833 838.833,450.667 843,450.5C 883.423,454.158 923.923,455.325 964.5,454C 988.145,451.753 1011.81,449.753 1035.5,448C 1086.09,443.66 1136.09,447.327 1185.5,459C 1195.56,463.299 1196.89,469.299 1189.5,477C 1184.62,480.297 1179.28,482.631 1173.5,484C 1137.41,493.355 1101.41,503.022 1065.5,513C 1053.94,517.114 1042.61,521.781 1031.5,527C 1005.15,535.536 978.152,540.869 950.5,543C 915.862,545.484 881.196,547.484 846.5,549C 828.289,551.293 811.122,556.793 795,565.5C 795.312,573.13 795.478,580.797 795.5,588.5C 831.681,582.735 867.348,584.902 902.5,595C 910.81,597.905 918.643,601.738 926,606.5C 974.665,582.982 1025.16,578.149 1077.5,592C 1108.16,598.726 1131.32,615.559 1147,642.5C 1154.64,656.689 1156.98,671.689 1154,687.5C 1150.23,700.206 1142.73,710.039 1131.5,717C 1112.91,724.519 1093.58,728.852 1073.5,730C 1054.47,730.858 1035.47,730.524 1016.5,729C 1002.66,727.374 989.33,723.874 976.5,718.5C 964.79,725.431 952.123,729.598 938.5,731C 916.977,734.051 896.477,730.884 877,721.5C 853.915,730.696 830.415,731.863 806.5,725C 798.278,721.972 790.111,718.805 782,715.5C 771.954,722.6 760.787,727.1 748.5,729C 709.755,735.227 671.088,734.893 632.5,728C 622.416,726.203 613.249,722.37 605,716.5C 594.374,725.046 582.207,729.879 568.5,731C 547.302,733.26 527.302,729.427 508.5,719.5C 481.795,732.372 454.462,733.872 426.5,724C 422.239,721.953 418.072,719.787 414,717.5C 379.869,729.726 344.703,734.226 308.5,731C 290.205,729.729 272.205,726.729 254.5,722C 249.636,720.657 244.969,718.823 240.5,716.5C 206.441,737.34 172.274,737.673 138,717.5C 125.154,728.562 110.154,733.895 93,733.5C 49.9915,731.161 24.3249,708.828 16,666.5C 12.2479,630.496 27.0812,605.663 60.5,592C 88.9804,581.376 117.98,579.709 147.5,587C 160.03,590.677 172.364,594.843 184.5,599.5C 238.524,577.908 293.191,576.074 348.5,594C 355.287,596.561 361.954,599.394 368.5,602.5C 373.422,600.536 378.422,598.869 383.5,597.5C 382.762,586.85 382.428,576.183 382.5,565.5C 364.182,563.736 346.182,560.236 328.5,555C 310.426,548.531 292.093,542.865 273.5,538C 259.249,535.22 244.915,534.72 230.5,536.5C 184.14,534.91 139.474,525.41 96.5,508C 73.0411,504.313 49.7078,499.979 26.5,495C 20.5142,493.592 15.3476,490.758 11,486.5C 10.231,483.901 10.3977,481.401 11.5,479C 32.5022,472.75 53.8355,467.75 75.5,464C 101.498,462.282 127.498,460.616 153.5,459C 166.518,458.417 179.518,458.751 192.5,460C 210.762,462.895 229.096,465.228 247.5,467C 274.273,468.257 300.94,467.091 327.5,463.5C 339.986,464.309 352.319,465.809 364.5,468C 346.816,459.3 330.483,448.634 315.5,436C 298.971,419.805 282.804,403.305 267,386.5C 251.338,397.836 233.838,404.669 214.5,407C 193.513,409.877 172.846,408.377 152.5,402.5C 127.714,417.683 102.38,418.85 76.5,406C 44.5802,384.247 34.0802,354.747 45,317.5C 55.495,296.006 71.995,281.173 94.5,273C 108.593,267.895 122.926,263.895 137.5,261C 127.163,250.99 119.663,239.156 115,225.5C 113.748,221.074 115.414,218.408 120,217.5C 122.856,218.256 125.689,219.089 128.5,220C 137.346,224.75 146.013,229.416 154.5,234C 165.762,217.741 180.762,206.407 199.5,200C 207.717,197.261 216.051,194.928 224.5,193C 235.639,141.025 267.639,112.525 320.5,107.5C 307.517,67.3875 315.684,62.7209 345,93.5C 349.688,98.6868 354.188,104.02 358.5,109.5C 369.991,111.873 381.325,114.873 392.5,118.5C 393.442,118.392 394.275,118.059 395,117.5C 419.783,62.6872 462.283,36.1872 522.5,38C 541.209,39.6253 558.875,44.792 575.5,53.5C 576.192,52.9747 576.692,52.3081 577,51.5C 578.474,39.3184 580.808,27.3184 584,15.5C 585.059,13.3408 586.559,11.6741 588.5,10.5 Z M 539.5,232.5 C 542.843,234.184 545.51,236.517 547.5,239.5C 538.868,280.748 535.368,322.414 537,364.5C 516.503,332.991 493.336,303.491 467.5,276C 495.18,267.338 519.18,252.838 539.5,232.5 Z M 693.5,242.5 C 696.488,246.616 699.155,251.116 701.5,256C 677.378,278.779 657.878,304.946 643,334.5C 639.94,341.68 637.273,349.014 635,356.5C 634.095,324.402 629.928,292.735 622.5,261.5C 647.978,261.549 671.645,255.215 693.5,242.5 Z M 448.5,402.5 C 436.536,393.508 423.536,386.008 409.5,380C 372.988,367.409 338.321,351.075 305.5,331C 305.416,325.044 305.416,318.877 305.5,312.5C 339.44,316.604 369.774,308.437 396.5,288C 402.437,298.27 407.937,308.77 413,319.5C 420,337.833 427,356.167 434,374.5C 438.066,384.3 442.899,393.633 448.5,402.5 Z M 759.5,306.5 C 780.392,312.227 801.558,313.894 823,311.5C 825.876,318.626 829.043,325.626 832.5,332.5C 800.867,352.991 768.533,372.491 735.5,391C 731.988,393.257 728.654,395.757 725.5,398.5C 729.072,391.672 732.572,384.339 736,376.5C 739.845,361.452 743.845,346.452 748,331.5C 751.845,323.145 755.678,314.812 759.5,306.5 Z"/></g>
<g><path style="opacity:1" fill="#fdfdfd" d="M 502.5,62.5 C 534.101,60.4254 562.435,68.9254 587.5,88C 589.199,88.9581 591.033,89.4581 593,89.5C 605.047,83.8961 617.214,78.3961 629.5,73C 683.624,57.5982 729.124,71.0982 766,113.5C 775.245,124.981 783.245,137.315 790,150.5C 793.203,154.688 797.37,156.521 802.5,156C 823.172,147.713 844.506,145.046 866.5,148C 885.417,151.923 898.584,162.756 906,180.5C 908.626,187.67 910.626,195.003 912,202.5C 915.194,207.513 919.694,209.346 925.5,208C 948.007,200.531 971.007,198.531 994.5,202C 1020.13,205.992 1038.63,219.492 1050,242.5C 1051.8,247.375 1053.14,252.375 1054,257.5C 1054.79,259.587 1055.96,261.421 1057.5,263C 1069.92,265.462 1082.25,268.462 1094.5,272C 1126.38,287.636 1135.88,312.136 1123,345.5C 1113,363.137 1097.83,373.303 1077.5,376C 1065.73,376.981 1054.07,376.315 1042.5,374C 1027.49,369.327 1012.83,363.827 998.5,357.5C 938.54,386.118 890.373,372.784 854,317.5C 849.257,309.016 845.924,300.016 844,290.5C 841.503,285.272 837.337,282.939 831.5,283.5C 805.735,288.092 780.735,285.592 756.5,276C 732.499,263.653 717.999,244.153 713,217.5C 710.791,212.315 706.958,210.149 701.5,211C 648.081,247.884 596.081,246.217 545.5,206C 541.649,203.365 537.649,203.031 533.5,205C 513.873,225.958 490.539,241.292 463.5,251C 444.909,256.257 426.575,255.59 408.5,249C 406.167,248.333 403.833,248.333 401.5,249C 394.221,257.612 386.221,265.612 377.5,273C 352.211,288.803 325.211,292.47 296.5,284C 290.315,281.998 285.815,283.831 283,289.5C 289.799,345.683 265.299,377.85 209.5,386C 189.786,388.25 170.62,386.083 152,379.5C 146.062,381.427 140.562,384.261 135.5,388C 107.982,398.827 86.4818,391.661 71,366.5C 60.3922,341.323 66.2255,320.823 88.5,305C 109.49,292.75 132.157,285.75 156.5,284C 159.583,283.214 161.749,281.381 163,278.5C 165.721,262.558 172.555,248.724 183.5,237C 189.747,231.768 196.747,227.768 204.5,225C 216.999,221.042 229.665,217.709 242.5,215C 246.428,213.407 248.928,210.573 250,206.5C 251.535,178.592 264.035,157.092 287.5,142C 301.19,134.411 315.856,130.911 331.5,131.5C 354.758,132.064 377.091,136.898 398.5,146C 403.669,147.295 408.169,146.128 412,142.5C 419.442,121.098 431.275,102.598 447.5,87C 463.674,73.8903 482.007,65.7237 502.5,62.5 Z M 539.5,232.5 C 519.18,252.838 495.18,267.338 467.5,276C 493.336,303.491 516.503,332.991 537,364.5C 535.368,322.414 538.868,280.748 547.5,239.5C 545.51,236.517 542.843,234.184 539.5,232.5 Z M 693.5,242.5 C 671.645,255.215 647.978,261.549 622.5,261.5C 629.928,292.735 634.095,324.402 635,356.5C 637.273,349.014 639.94,341.68 643,334.5C 657.878,304.946 677.378,278.779 701.5,256C 699.155,251.116 696.488,246.616 693.5,242.5 Z"/></g>
<g><path style="opacity:1" fill="#030303" d="M 506.5,84.5 C 531.55,81.7949 553.05,89.1282 571,106.5C 572.785,113.806 570.952,119.972 565.5,125C 561.757,124.462 558.424,122.796 555.5,120C 529.888,105.679 504.555,106.013 479.5,121C 469.854,128.315 460.854,136.315 452.5,145C 448.328,145.868 445.162,144.368 443,140.5C 441.048,136.696 440.381,132.696 441,128.5C 457.379,105.726 479.212,91.0596 506.5,84.5 Z"/></g>
<g><path style="opacity:1" fill="#040404" d="M 657.5,93.5 C 706.289,90.1392 742.789,109.473 767,151.5C 768.844,160.334 765.51,166.334 757,169.5C 756.127,169.265 755.293,168.931 754.5,168.5C 728.821,123.497 690.821,107.33 640.5,120C 627.674,124.739 617.007,132.405 608.5,143C 604.454,143.324 601.621,141.491 600,137.5C 596.87,132.105 596.87,126.771 600,121.5C 610.813,109.165 624.313,100.998 640.5,97C 646.229,95.4321 651.896,94.2654 657.5,93.5 Z"/></g>
<g><path style="opacity:1" fill="#040404" d="M 329.5,151.5 C 345.122,150.399 360.455,151.899 375.5,156C 380.594,174.565 374.261,179.898 356.5,172C 332.804,166.121 313.304,172.621 298,191.5C 290.049,202 284.382,213.666 281,226.5C 274.545,228.979 269.545,227.312 266,221.5C 270.514,183.149 291.68,159.816 329.5,151.5 Z"/></g>
<g><path style="opacity:1" fill="#030303" d="M 829.5,166.5 C 839.883,166.162 850.216,166.662 860.5,168C 882.001,174.151 892.834,188.318 893,210.5C 889.668,214.947 885.501,216.114 880.5,214C 877.38,207.59 873.88,201.423 870,195.5C 860.335,186.227 848.835,182.727 835.5,185C 829.317,186.046 823.317,187.712 817.5,190C 813.525,191.379 810.691,190.213 809,186.5C 808.133,182.044 808.466,177.711 810,173.5C 810.903,172.299 812.069,171.465 813.5,171C 818.994,169.598 824.327,168.098 829.5,166.5 Z"/></g>
<g><path style="opacity:1" fill="#040404" d="M 954.5,222.5 C 976.575,220.032 996.575,225.198 1014.5,238C 1024.98,246.979 1031.98,258.146 1035.5,271.5C 1035.19,277.813 1032.19,282.146 1026.5,284.5C 1025.06,284.281 1023.73,283.781 1022.5,283C 1003.14,247.205 974.137,236.205 935.5,250C 930.876,251.056 928.043,249.223 927,244.5C 925.419,238.938 926.919,234.438 931.5,231C 938.88,227.044 946.547,224.211 954.5,222.5 Z"/></g>
<g><path style="opacity:1" fill="#040404" d="M 226.5,235.5 C 243.848,231.339 249.015,237.339 242,253.5C 226.46,254.27 213.793,260.603 204,272.5C 201.007,278.319 198.173,284.152 195.5,290C 183.505,290.987 179.005,285.487 182,273.5C 189.959,252.702 204.793,240.036 226.5,235.5 Z"/></g>
<g><path style="opacity:1" fill="#fabd00" d="M 572.5,251.5 C 580.597,255.212 588.931,258.379 597.5,261C 604.675,281.204 609.175,302.037 611,323.5C 613.135,337.889 612.968,352.222 610.5,366.5C 596.017,366.296 581.517,366.63 567,367.5C 566.055,367.095 565.388,366.428 565,365.5C 560.118,327.03 562.618,289.03 572.5,251.5 Z"/></g>
<g><path style="opacity:1" fill="#fbbd00" d="M 713.5,277.5 C 718.126,279.598 722.126,282.764 725.5,287C 730.612,289.873 735.278,293.206 739.5,297C 727.777,315.831 720.611,336.331 718,358.5C 714.183,373.141 707.017,385.808 696.5,396.5C 683.418,389.526 670.085,383.026 656.5,377C 655.971,370.012 657.137,363.179 660,356.5C 672.375,326.4 690.208,300.067 713.5,277.5 Z"/></g>
<g><path style="opacity:1" fill="#fbbd00" d="M 419.5,279.5 C 428.07,281.033 436.737,281.866 445.5,282C 472.988,311.664 497.322,343.664 518.5,378C 504.598,383.951 491.265,390.951 478.5,399C 476.097,399.63 474.263,398.797 473,396.5C 468.163,389.496 463.829,382.163 460,374.5C 450.411,351.402 441.411,328.069 433,304.5C 428.984,295.794 424.484,287.46 419.5,279.5 Z"/></g>
<g><path style="opacity:1" fill="#050505" d="M 1055.5,287.5 C 1074.41,284.844 1090.24,290.511 1103,304.5C 1111.2,316.9 1112.7,330.067 1107.5,344C 1102.04,347.351 1096.88,347.185 1092,343.5C 1091.67,337.5 1091.33,331.5 1091,325.5C 1089.18,315.676 1083.34,309.842 1073.5,308C 1066.64,307.034 1059.8,306.2 1053,305.5C 1049.05,298.646 1049.88,292.646 1055.5,287.5 Z"/></g>
<g><path style="opacity:1" fill="#050505" d="M 137.5,300.5 C 143.509,300.334 149.509,300.501 155.5,301C 164.425,304.476 166.425,310.143 161.5,318C 134.959,314.365 114.459,323.532 100,345.5C 97.4074,350.535 95.7408,355.868 95,361.5C 92.373,363.988 89.5397,364.155 86.5,362C 80.7387,356.763 78.9053,350.263 81,342.5C 87.1407,324.359 99.3073,312.193 117.5,306C 124.208,303.826 130.875,301.993 137.5,300.5 Z"/></g>
<g><path style="opacity:1" fill="#fbbd00" d="M 845.5,348.5 C 853.033,356.2 861.033,363.367 869.5,370C 854.711,378.142 840.878,387.642 828,398.5C 811.239,419.929 792.406,439.429 771.5,457C 768.942,458.626 766.275,459.626 763.5,460C 754.723,445.546 744.057,432.546 731.5,421C 736.928,415.569 742.928,410.902 749.5,407C 782.397,388.73 814.397,369.23 845.5,348.5 Z"/></g>
<g><path style="opacity:1" fill="#fbbd00" d="M 298.5,350.5 C 311.118,358.482 324.118,365.982 337.5,373C 364.665,384.277 391.665,395.944 418.5,408C 427.718,413.22 436.384,419.22 444.5,426C 432.854,438.642 422.354,452.142 413,466.5C 380.26,455.553 350.76,439.053 324.5,417C 311,404.833 298.167,392 286,378.5C 290.908,369.668 295.075,360.335 298.5,350.5 Z"/></g>
<g><path style="opacity:1" fill="#fbbe00" d="M 578.5,385.5 C 656.751,384.056 715.584,416.723 755,483.5C 773.759,520.054 780.426,558.721 775,599.5C 763.87,603.434 752.87,607.767 742,612.5C 687.157,584.395 631.324,582.228 574.5,606C 570.34,607.912 566.34,610.079 562.5,612.5C 552.558,605.197 541.558,600.03 529.5,597C 488.137,588.241 446.804,588.408 405.5,597.5C 397.595,515.812 428.262,453.312 497.5,410C 522.894,396.074 549.894,387.908 578.5,385.5 Z"/></g>
<g><path style="opacity:1" fill="#fabd00" d="M 1047.5,470.5 C 1069.5,470.333 1091.5,470.5 1113.5,471C 1118.49,471.749 1123.49,472.415 1128.5,473C 1130.04,473.29 1131.38,473.956 1132.5,475C 1110.67,479.541 1089,484.874 1067.5,491C 1049.75,496.806 1032.08,502.806 1014.5,509C 958.23,521.551 901.23,527.218 843.5,526C 829.561,527.98 816.228,531.98 803.5,538C 800.568,538.953 797.568,539.453 794.5,539.5C 792.775,523.101 788.775,507.267 782.5,492C 790.77,486.792 799.77,483.126 809.5,481C 832.829,474.647 856.496,472.981 880.5,476C 914.5,476.667 948.5,476.667 982.5,476C 1004.25,473.264 1025.91,471.431 1047.5,470.5 Z"/></g>
<g><path style="opacity:1" fill="#020100" d="M 557.5,507.5 C 554.713,506.523 551.713,506.19 548.5,506.5C 548.5,507.833 548.5,509.167 548.5,510.5C 544.453,526.361 534.453,532.195 518.5,528C 512.939,525.438 509.106,521.272 507,515.5C 506.124,511.3 505.291,507.133 504.5,503C 499.905,501.607 495.239,501.274 490.5,502C 485.38,504.06 480.38,506.393 475.5,509C 470.917,509.934 469.417,508.1 471,503.5C 482.309,490.851 496.142,482.351 512.5,478C 531.931,476.869 550.931,479.202 569.5,485C 571.059,486.996 571.726,489.329 571.5,492C 571.132,497.573 570.299,503.073 569,508.5C 568.439,509.022 567.772,509.355 567,509.5C 563.863,508.639 560.697,507.973 557.5,507.5 Z"/></g>
<g><path style="opacity:1" fill="#fabd00" d="M 141.5,479.5 C 154.524,479.374 167.524,479.874 180.5,481C 230.684,488.217 281.018,489.384 331.5,484.5C 351.862,483.801 370.528,488.967 387.5,500C 389.557,501.719 391.224,503.719 392.5,506C 388.848,517.926 386.348,530.093 385,542.5C 383.82,543.684 382.32,544.351 380.5,544.5C 371.046,543.303 361.712,541.47 352.5,539C 336.083,533.96 319.749,528.627 303.5,523C 287.496,518.099 271.163,514.932 254.5,513.5C 205.263,515.42 157.597,507.587 111.5,490C 100.417,488.407 89.4169,486.407 78.5,484C 78.8333,483.667 79.1667,483.333 79.5,483C 100.381,482.872 121.047,481.706 141.5,479.5 Z"/></g>
<g><path style="opacity:1" fill="#030200" d="M 631.5,479.5 C 648.925,478.405 665.925,480.571 682.5,486C 692.075,489.586 699.908,495.419 706,503.5C 707.404,505.639 708.237,507.972 708.5,510.5C 708.658,512.319 707.991,513.652 706.5,514.5C 697.94,506.713 687.94,503.213 676.5,504C 675.958,522.786 666.291,531.119 647.5,529C 638.235,525.309 633.235,518.476 632.5,508.5C 625.108,508.819 617.775,508.819 610.5,508.5C 608.608,501.618 608.108,494.618 609,487.5C 609.308,486.692 609.808,486.025 610.5,485.5C 617.428,482.779 624.428,480.779 631.5,479.5 Z"/></g>
<g><path style="opacity:1" fill="#8a6800" d="M 557.5,507.5 C 554.833,507.5 552.167,507.5 549.5,507.5C 549.737,508.791 549.404,509.791 548.5,510.5C 548.5,509.167 548.5,507.833 548.5,506.5C 551.713,506.19 554.713,506.523 557.5,507.5 Z"/></g>
<g><path style="opacity:1" fill="#030200" d="M 609.5,549.5 C 611.017,549.511 612.184,550.177 613,551.5C 613.968,559.314 613.301,566.98 611,574.5C 610.535,575.931 609.701,577.097 608.5,578C 594.724,584.358 580.724,585.025 566.5,580C 564,578.833 562.167,577 561,574.5C 559.197,569.59 557.697,564.59 556.5,559.5C 556.608,558.558 556.941,557.725 557.5,557C 560.069,557.59 562.735,558.257 565.5,559C 579.255,559.984 592.922,559.318 606.5,557C 608.747,555.005 609.747,552.505 609.5,549.5 Z"/></g>
<g><path style="opacity:1" fill="#fdfdfd" d="M 106.5,606.5 C 141.959,604.148 169.792,617.481 190,646.5C 201.455,664.105 211.789,682.105 221,700.5C 209.285,708.036 196.452,710.87 182.5,709C 174.063,707.947 166.396,704.947 159.5,700C 143.915,685.417 128.582,670.417 113.5,655C 108.569,650.868 102.902,648.368 96.5,647.5C 87.8049,648.875 84.6382,653.875 87,662.5C 89.2727,665.804 92.4394,667.304 96.5,667C 101.588,670.083 106.088,673.917 110,678.5C 115.025,684.691 119.858,691.024 124.5,697.5C 121.909,702.59 117.909,706.09 112.5,708C 88.7811,714.315 68.6144,708.481 52,690.5C 37.2813,670.014 36.9479,649.347 51,628.5C 59.5499,619.971 69.7166,614.138 81.5,611C 89.8604,608.831 98.1937,607.331 106.5,606.5 Z"/></g>
<g><path style="opacity:1" fill="#eb1b23" d="M 262.5,606.5 C 287.425,604.514 311.758,607.347 335.5,615C 349.932,620.773 362.099,629.606 372,641.5C 382.448,658.407 391.782,675.741 400,693.5C 398.269,695.617 396.102,697.117 393.5,698C 370.056,706.212 345.89,709.712 321,708.5C 297.345,709.122 274.511,705.289 252.5,697C 244.606,690.105 237.773,682.272 232,673.5C 222.833,656.5 213.667,639.5 204.5,622.5C 210.683,618.603 217.349,615.77 224.5,614C 237.162,610.727 249.828,608.227 262.5,606.5 Z"/></g>
<g><path style="opacity:1" fill="#eb1b23" d="M 1009.5,607.5 C 1041.24,605.483 1071.24,611.65 1099.5,626C 1116.62,636.112 1128.12,650.612 1134,669.5C 1136.26,678.999 1134.1,687.166 1127.5,694C 1110.95,703.973 1092.95,709.307 1073.5,710C 1046.72,711.651 1020.72,707.984 995.5,699C 986.822,692.133 979.655,683.966 974,674.5C 964.96,657.587 955.794,640.753 946.5,624C 951.998,620.252 957.998,617.585 964.5,616C 979.483,612.302 994.483,609.469 1009.5,607.5 Z"/></g>
<g><path style="opacity:1" fill="#fdfdfd" d="M 458.5,608.5 C 482.291,607.018 505.291,610.518 527.5,619C 545.279,627.779 558.779,640.946 568,658.5C 574.064,672.387 581.064,685.72 589,698.5C 589.738,701.212 589.071,703.545 587,705.5C 581.748,709.208 575.915,711.375 569.5,712C 549.126,716.037 531.626,710.871 517,696.5C 504.757,681.2 491.924,666.367 478.5,652C 472.914,647.471 466.581,645.805 459.5,647C 454.112,650.71 453.278,655.21 457,660.5C 470.394,671.562 482.061,684.228 492,698.5C 492.667,699.833 492.667,701.167 492,702.5C 484.406,708.402 475.74,711.069 466,710.5C 455.66,710.72 446.493,707.553 438.5,701C 431.896,693.731 426.063,685.898 421,677.5C 410.668,659.499 399.835,641.833 388.5,624.5C 411.226,615.983 434.56,610.649 458.5,608.5 Z"/></g>
<g><path style="opacity:1" fill="#fdfdfd" d="M 829.5,609.5 C 856.133,607.802 881.466,612.636 905.5,624C 918.667,631.833 929.167,642.333 937,655.5C 944.711,669.956 952.044,684.623 959,699.5C 960.041,702.636 959.207,705.136 956.5,707C 953.052,708.927 949.385,710.261 945.5,711C 935.54,712.462 925.54,712.795 915.5,712C 902.957,710.813 892.79,705.313 885,695.5C 874.714,683.092 864.547,670.592 854.5,658C 849.844,653.185 844.178,650.352 837.5,649.5C 825.986,653.395 824.652,659.561 833.5,668C 838.633,670.654 843.133,674.154 847,678.5C 853.121,685.913 858.621,693.746 863.5,702C 860.12,706.696 855.453,709.363 849.5,710C 828.057,712.745 811.224,705.245 799,687.5C 785.675,667.185 774.175,645.852 764.5,623.5C 785.81,616.566 807.477,611.899 829.5,609.5 Z"/></g>
<g><path style="opacity:1" fill="#eb1b23" d="M 635.5,610.5 C 660.879,608.483 685.545,611.65 709.5,620C 724.371,626.021 736.538,635.521 746,648.5C 755.53,664.568 764.196,680.902 772,697.5C 765.921,702.198 759.088,705.364 751.5,707C 741.901,709.038 732.234,710.705 722.5,712C 705.5,712.667 688.5,712.667 671.5,712C 655.693,710.706 640.36,707.372 625.5,702C 617.247,695.749 610.414,688.249 605,679.5C 594.991,662.152 585.491,644.485 576.5,626.5C 583.962,622.066 591.962,618.9 600.5,617C 612.225,614.382 623.892,612.215 635.5,610.5 Z"/></g>
<g><path style="opacity:0.993" fill="#020101" d="M 13.5,810.5 C 397.5,810.5 781.5,810.5 1165.5,810.5C 1165.98,1033.18 1165.48,1255.84 1164,1478.5C 1160.86,1559.55 1143.19,1637.22 1111,1711.5C 1072.13,1792.72 1014.3,1856.89 937.5,1904C 892.542,1931.48 845.208,1954.14 795.5,1972C 728.103,1995.69 659.603,2015.52 590,2031.5C 525.613,2016.53 462.113,1998.36 399.5,1977C 336.359,1955.43 277.026,1926.43 221.5,1890C 120.46,1818.87 57.2929,1722.37 32,1600.5C 20.4188,1545.44 14.4188,1489.77 14,1433.5C 13.5,1225.83 13.3333,1018.17 13.5,810.5 Z"/></g>
<g><path style="opacity:1" fill="#dddcdd" d="M 41.5,838.5 C 191.5,838.5 341.5,838.5 491.5,838.5C 491.5,974.167 491.5,1109.83 491.5,1245.5C 341.5,1245.5 191.5,1245.5 41.5,1245.5C 41.5,1109.83 41.5,974.167 41.5,838.5 Z"/></g>
<g><path style="opacity:1" fill="#ec1b23" d="M 515.5,1981.5 C 515.5,1788.83 515.5,1596.17 515.5,1403.5C 357.833,1403.5 200.167,1403.5 42.5,1403.5C 42.5,1359.5 42.5,1315.5 42.5,1271.5C 200.334,1271.83 358.001,1271.5 515.5,1270.5C 515.5,1126.5 515.5,982.5 515.5,838.5C 565.167,838.5 614.833,838.5 664.5,838.5C 664.5,982.833 664.5,1127.17 664.5,1271.5C 822.167,1271.5 979.833,1271.5 1137.5,1271.5C 1137.5,1315.5 1137.5,1359.5 1137.5,1403.5C 979.833,1403.5 822.167,1403.5 664.5,1403.5C 664.5,1596.5 664.5,1789.5 664.5,1982.5C 639.628,1988.59 614.795,1994.93 590,2001.5C 564.925,1995.19 540.091,1988.53 515.5,1981.5 Z"/></g>
<g><path style="opacity:1" fill="#dddcdd" d="M 688.5,838.5 C 838.167,838.5 987.833,838.5 1137.5,838.5C 1137.5,974.167 1137.5,1109.83 1137.5,1245.5C 987.833,1245.5 838.167,1245.5 688.5,1245.5C 688.5,1109.83 688.5,974.167 688.5,838.5 Z"/></g>
<g><path style="opacity:1" fill="#010101" d="M 395.5,905.5 C 395.5,918.833 395.5,932.167 395.5,945.5C 404.833,945.5 414.167,945.5 423.5,945.5C 423.5,1017.83 423.5,1090.17 423.5,1162.5C 380.5,1162.5 337.5,1162.5 294.5,1162.5C 294.5,1167.83 294.5,1173.17 294.5,1178.5C 276.833,1178.5 259.167,1178.5 241.5,1178.5C 241.5,1173.17 241.5,1167.83 241.5,1162.5C 198.5,1162.5 155.5,1162.5 112.5,1162.5C 112.5,1090.17 112.5,1017.83 112.5,945.5C 121.682,945.827 130.682,945.493 139.5,944.5C 139.84,931.634 140.84,918.967 142.5,906.5C 153.175,907.804 163.842,907.637 174.5,906C 193.575,902.37 212.741,899.203 232,896.5C 244.813,896.495 256.646,899.828 267.5,906.5C 277.482,900.468 288.315,897.135 300,896.5C 323.146,900.129 346.312,903.629 369.5,907C 378.244,907.745 386.911,907.245 395.5,905.5 Z"/></g>
<g><path style="opacity:1" fill="#000000" d="M 1038.5,906.5 C 1039.83,906.5 1041.17,906.5 1042.5,906.5C 1042.17,919.344 1042.5,932.011 1043.5,944.5C 1052.32,945.493 1061.32,945.827 1070.5,945.5C 1070.5,1017.83 1070.5,1090.17 1070.5,1162.5C 1027.5,1162.5 984.5,1162.5 941.5,1162.5C 941.5,1167.83 941.5,1173.17 941.5,1178.5C 923.833,1178.5 906.167,1178.5 888.5,1178.5C 888.5,1173.17 888.5,1167.83 888.5,1162.5C 845.5,1162.5 802.5,1162.5 759.5,1162.5C 759.5,1090.17 759.5,1017.83 759.5,945.5C 768.833,945.5 778.167,945.5 787.5,945.5C 787.5,932.167 787.5,918.833 787.5,905.5C 795.364,907.384 803.364,907.884 811.5,907C 834.38,903.77 857.214,900.27 880,896.5C 892.706,896.801 904.54,900.134 915.5,906.5C 925.052,900.261 935.552,896.927 947,896.5C 967.533,899.394 988.033,902.561 1008.5,906C 1018.49,906.5 1028.49,906.666 1038.5,906.5 Z"/></g>
<g><path style="opacity:1" fill="#706f70" d="M 787.5,905.5 C 787.5,918.833 787.5,932.167 787.5,945.5C 778.167,945.5 768.833,945.5 759.5,945.5C 768.318,944.507 777.318,944.173 786.5,944.5C 786.171,931.323 786.505,918.323 787.5,905.5 Z"/></g>
<g><path style="opacity:1" fill="#403f40" d="M 1038.5,906.5 C 1039.92,905.549 1041.59,905.216 1043.5,905.5C 1043.5,918.5 1043.5,931.5 1043.5,944.5C 1042.5,932.011 1042.17,919.344 1042.5,906.5C 1041.17,906.5 1039.83,906.5 1038.5,906.5 Z"/></g>
<g><path style="opacity:1" fill="#353535" d="M 142.5,906.5 C 140.84,918.967 139.84,931.634 139.5,944.5C 139.5,931.5 139.5,918.5 139.5,905.5C 140.791,905.263 141.791,905.596 142.5,906.5 Z"/></g>
<g><path style="opacity:1" fill="#fefefe" d="M 163.5,1118.5 C 163.5,1056.17 163.5,993.833 163.5,931.5C 167.042,931.813 170.375,931.479 173.5,930.5C 192.918,926.972 212.418,923.972 232,921.5C 240.111,920.772 247.111,923.105 253,928.5C 253.833,991.836 253.667,1055.17 252.5,1118.5C 239.22,1113.32 225.554,1112.15 211.5,1115C 198.138,1119.48 184.471,1121.48 170.5,1121C 167.97,1120.62 165.637,1119.79 163.5,1118.5 Z"/></g>
<g><path style="opacity:1" fill="#fefefe" d="M 361.5,930.5 C 364.962,931.482 368.629,931.815 372.5,931.5C 372.5,993.833 372.5,1056.17 372.5,1118.5C 364.456,1121.39 356.123,1122.23 347.5,1121C 339.125,1119.16 330.792,1117.16 322.5,1115C 313.546,1113.53 304.546,1113.19 295.5,1114C 291.099,1114.91 286.932,1116.41 283,1118.5C 282.333,1055.17 282.333,991.833 283,928.5C 288.127,923.012 294.461,920.679 302,921.5C 321.895,924.122 341.729,927.122 361.5,930.5 Z"/></g>
<g><path style="opacity:1" fill="#fefefe" d="M 896.5,929.5 C 896.832,992.336 896.499,1055 895.5,1117.5C 884.487,1113.71 873.154,1112.54 861.5,1114C 850.231,1116.65 838.897,1118.98 827.5,1121C 820.559,1122.12 813.892,1121.29 807.5,1118.5C 806.5,1055.84 806.167,993.17 806.5,930.5C 814.208,930.642 821.875,930.142 829.5,929C 844.966,925.2 860.633,922.7 876.5,921.5C 883.04,920.847 889.04,922.347 894.5,926C 895.823,926.816 896.489,927.983 896.5,929.5 Z"/></g>
<g><path style="opacity:1" fill="#fefefe" d="M 927.5,1117.5 C 926.501,1055 926.168,992.336 926.5,929.5C 930.969,923.603 936.969,920.936 944.5,921.5C 962.333,923.207 980,926.04 997.5,930C 1003.82,930.5 1010.16,930.666 1016.5,930.5C 1016.83,993.17 1016.5,1055.84 1015.5,1118.5C 1007.75,1121.38 999.751,1122.21 991.5,1121C 977.499,1116.6 963.166,1114.1 948.5,1113.5C 941.242,1113.59 934.242,1114.92 927.5,1117.5 Z"/></g>
<g><path style="opacity:1" fill="#a1a1a1" d="M 926.5,929.5 C 926.168,992.336 926.501,1055 927.5,1117.5C 927.44,1118.04 927.107,1118.38 926.5,1118.5C 925.168,1055.33 925.168,992.335 926.5,929.5 Z"/></g>
<g><path style="opacity:1" fill="#d0cfd0" d="M 896.5,929.5 C 897.832,992.335 897.832,1055.33 896.5,1118.5C 895.893,1118.38 895.56,1118.04 895.5,1117.5C 896.499,1055 896.832,992.336 896.5,929.5 Z"/></g>
<g><path style="opacity:1" fill="#b0b0b0" d="M 173.5,930.5 C 170.375,931.479 167.042,931.813 163.5,931.5C 163.5,993.833 163.5,1056.17 163.5,1118.5C 162.501,1056 162.168,993.336 162.5,930.5C 166.167,930.5 169.833,930.5 173.5,930.5 Z"/></g>
<g><path style="opacity:1" fill="#595859" d="M 361.5,930.5 C 365.5,930.5 369.5,930.5 373.5,930.5C 373.832,993.336 373.499,1056 372.5,1118.5C 372.5,1056.17 372.5,993.833 372.5,931.5C 368.629,931.815 364.962,931.482 361.5,930.5 Z"/></g>
<g><path style="opacity:1" fill="#797979" d="M 395.5,905.5 C 396.495,918.323 396.829,931.323 396.5,944.5C 405.682,944.173 414.682,944.507 423.5,945.5C 414.167,945.5 404.833,945.5 395.5,945.5C 395.5,932.167 395.5,918.833 395.5,905.5 Z"/></g>
<g><path style="opacity:1" fill="#a09fa0" d="M 112.5,1162.5 C 155.5,1162.5 198.5,1162.5 241.5,1162.5C 241.5,1167.83 241.5,1173.17 241.5,1178.5C 240.513,1173.69 240.179,1168.69 240.5,1163.5C 197.663,1163.83 154.997,1163.5 112.5,1162.5 Z"/></g>
<g><path style="opacity:1" fill="#a1a0a1" d="M 1070.5,1162.5 C 1028,1163.5 985.337,1163.83 942.5,1163.5C 942.821,1168.69 942.487,1173.69 941.5,1178.5C 941.5,1173.17 941.5,1167.83 941.5,1162.5C 984.5,1162.5 1027.5,1162.5 1070.5,1162.5 Z"/></g>
<g><path style="opacity:1" fill="#820f13" d="M 515.5,1270.5 C 358.001,1271.5 200.334,1271.83 42.5,1271.5C 42.5,1315.5 42.5,1359.5 42.5,1403.5C 42.1667,1403.5 41.8333,1403.5 41.5,1403.5C 41.5,1359.17 41.5,1314.83 41.5,1270.5C 199.5,1270.5 357.5,1270.5 515.5,1270.5 Z"/></g>
<g><path style="opacity:1" fill="#330607" d="M 41.5,1403.5 C 41.8333,1403.5 42.1667,1403.5 42.5,1403.5C 200.167,1403.5 357.833,1403.5 515.5,1403.5C 515.5,1596.17 515.5,1788.83 515.5,1981.5C 514.5,1789.33 514.167,1597 514.5,1404.5C 356.666,1404.83 198.999,1404.5 41.5,1403.5 Z"/></g>
<g><path style="opacity:1" fill="#dddcdd" d="M 112.5,1532.5 C 111.833,1596.5 111.167,1660.5 110.5,1724.5C 86.9596,1681.4 70.1262,1635.73 60,1587.5C 49.1557,1535.06 43.3224,1482.06 42.5,1428.5C 192.167,1428.5 341.833,1428.5 491.5,1428.5C 491.833,1610.5 491.5,1792.5 490.5,1974.5C 420.183,1954.67 352.516,1928.17 287.5,1895C 221.6,1860.77 167.933,1812.77 126.5,1751C 164.832,1750.5 203.165,1750.33 241.5,1750.5C 241.5,1755.83 241.5,1761.17 241.5,1766.5C 259.167,1766.5 276.833,1766.5 294.5,1766.5C 294.5,1761.17 294.5,1755.83 294.5,1750.5C 337.5,1750.5 380.5,1750.5 423.5,1750.5C 423.5,1677.83 423.5,1605.17 423.5,1532.5C 414.5,1532.5 405.5,1532.5 396.5,1532.5C 396.5,1519.5 396.5,1506.5 396.5,1493.5C 385.519,1494.52 374.519,1494.68 363.5,1494C 342.275,1490.07 320.942,1486.91 299.5,1484.5C 287.986,1484.73 277.486,1488.06 268,1494.5C 257.594,1487.58 246.094,1484.25 233.5,1484.5C 211.81,1487.45 190.143,1490.61 168.5,1494C 158.811,1494.69 149.144,1494.53 139.5,1493.5C 139.5,1506.5 139.5,1519.5 139.5,1532.5C 130.5,1532.5 121.5,1532.5 112.5,1532.5 Z"/></g>
<g><path style="opacity:1" fill="#dddcdd" d="M 1072.5,1726.5 C 1071.83,1661.83 1071.17,1597.17 1070.5,1532.5C 1061.5,1532.5 1052.5,1532.5 1043.5,1532.5C 1043.5,1519.5 1043.5,1506.5 1043.5,1493.5C 1033.19,1494.51 1022.85,1494.67 1012.5,1494C 991.514,1490.64 970.514,1487.47 949.5,1484.5C 936.877,1484.1 925.377,1487.43 915,1494.5C 904.623,1487.43 893.123,1484.1 880.5,1484.5C 858.817,1487.47 837.151,1490.64 815.5,1494C 805.811,1494.69 796.144,1494.53 786.5,1493.5C 786.5,1506.5 786.5,1519.5 786.5,1532.5C 777.5,1532.5 768.5,1532.5 759.5,1532.5C 759.5,1605.17 759.5,1677.83 759.5,1750.5C 802.5,1750.5 845.5,1750.5 888.5,1750.5C 888.5,1755.83 888.5,1761.17 888.5,1766.5C 906.167,1766.5 923.833,1766.5 941.5,1766.5C 941.5,1761.17 941.5,1755.83 941.5,1750.5C 980.168,1750.33 1018.83,1750.5 1057.5,1751C 1022.94,1801.89 979.61,1843.56 927.5,1876C 880.342,1904.41 830.675,1927.74 778.5,1946C 748.779,1956.41 718.779,1965.91 688.5,1974.5C 688.5,1792.5 688.5,1610.5 688.5,1428.5C 838.167,1428.5 987.833,1428.5 1137.5,1428.5C 1137.52,1485.07 1131.69,1541.07 1120,1596.5C 1110.61,1642.27 1094.77,1685.6 1072.5,1726.5 Z"/></g>
<g><path style="opacity:1" fill="#fdfdfd" d="M 224.5,1509.5 C 230.509,1509.33 236.509,1509.5 242.5,1510C 246.722,1511.03 250.222,1513.19 253,1516.5C 253.667,1579.83 253.667,1643.17 253,1706.5C 245.364,1702.38 237.198,1700.72 228.5,1701.5C 224.5,1701.67 220.5,1701.83 216.5,1702C 203.645,1705.3 190.645,1707.8 177.5,1709.5C 172.234,1709.64 167.4,1708.31 163,1705.5C 162.5,1643.17 162.333,1580.83 162.5,1518.5C 167.844,1518.67 173.177,1518.5 178.5,1518C 193.994,1515.25 209.327,1512.42 224.5,1509.5 Z"/></g>
<g><path style="opacity:1" fill="#fefefe" d="M 283.5,1705.5 C 282.501,1643 282.168,1580.34 282.5,1517.5C 287.568,1511.14 294.235,1508.47 302.5,1509.5C 320.359,1511.08 338.026,1513.91 355.5,1518C 361.157,1518.5 366.824,1518.67 372.5,1518.5C 372.833,1581.17 372.5,1643.84 371.5,1706.5C 366.661,1708.29 361.661,1709.29 356.5,1709.5C 345.286,1708.42 334.286,1706.26 323.5,1703C 309.862,1700.3 296.528,1701.13 283.5,1705.5 Z"/></g>
<g><path style="opacity:1" fill="#fefefe" d="M 900.5,1517.5 C 900.832,1580.34 900.499,1643 899.5,1705.5C 887.832,1701.68 875.832,1700.51 863.5,1702C 850.842,1705.4 838.009,1707.9 825,1709.5C 820.269,1709.45 815.769,1708.45 811.5,1706.5C 810.5,1643.84 810.167,1581.17 810.5,1518.5C 818.208,1518.64 825.875,1518.14 833.5,1517C 848.621,1513.14 863.954,1510.64 879.5,1509.5C 888.095,1508.38 895.095,1511.05 900.5,1517.5 Z"/></g>
<g><path style="opacity:1" fill="#fefefe" d="M 940.5,1509.5 C 946.509,1509.33 952.509,1509.5 958.5,1510C 973.214,1512.41 987.88,1515.08 1002.5,1518C 1008.16,1518.5 1013.82,1518.67 1019.5,1518.5C 1019.83,1581.17 1019.5,1643.84 1018.5,1706.5C 1013.69,1708.4 1008.69,1709.4 1003.5,1709.5C 990.72,1707.64 978.053,1705.14 965.5,1702C 957.5,1701.33 949.5,1701.33 941.5,1702C 937.345,1702.72 933.512,1704.22 930,1706.5C 929.333,1643.17 929.333,1579.83 930,1516.5C 932.998,1513.26 936.498,1510.93 940.5,1509.5 Z"/></g>
<g><path style="opacity:0.769" fill="#464646" d="M 282.5,1517.5 C 282.168,1580.34 282.501,1643 283.5,1705.5C 283.44,1706.04 283.107,1706.38 282.5,1706.5C 281.168,1643.33 281.168,1580.33 282.5,1517.5 Z"/></g>
<g><path style="opacity:0.741" fill="#2e2e2e" d="M 900.5,1517.5 C 901.832,1580.33 901.832,1643.33 900.5,1706.5C 899.893,1706.38 899.56,1706.04 899.5,1705.5C 900.499,1643 900.832,1580.34 900.5,1517.5 Z"/></g>
<g><path style="opacity:0.792" fill="#989698" d="M 112.5,1532.5 C 112.667,1597.17 112.5,1661.83 112,1726.5C 111.283,1725.96 110.783,1725.29 110.5,1724.5C 111.167,1660.5 111.833,1596.5 112.5,1532.5 Z"/></g>
<g><path style="opacity:0.835" fill="#9e9d9e" d="M 1070.5,1532.5 C 1071.17,1597.17 1071.83,1661.83 1072.5,1726.5C 1072.22,1727.29 1071.72,1727.96 1071,1728.5C 1070.5,1663.17 1070.33,1597.83 1070.5,1532.5 Z"/></g>
</svg>
