<?xml version="1.0" encoding="UTF-8"?>
<!DOCTYPE svg PUBLIC "-//W3C//DTD SVG 1.1//EN" "http://www.w3.org/Graphics/SVG/1.1/DTD/svg11.dtd">
<svg xmlns="http://www.w3.org/2000/svg" version="1.1" width="1440px" height="2155px" style="shape-rendering:geometricPrecision; text-rendering:geometricPrecision; image-rendering:optimizeQuality; fill-rule:evenodd; clip-rule:evenodd" xmlns:xlink="http://www.w3.org/1999/xlink">
<g><path style="opacity:0.979" fill="#fefcfc" d="M 311.5,-0.5 C 583.5,-0.5 855.5,-0.5 1127.5,-0.5C 1231.47,99.8058 1335.47,200.139 1439.5,300.5C 1439.5,454.833 1439.5,609.167 1439.5,763.5C 1299.5,763.5 1159.5,763.5 1019.5,763.5C 1020.54,757.143 1020.54,750.81 1019.5,744.5C 1152.5,744.5 1285.5,744.5 1418.5,744.5C 1418.67,598.5 1418.5,452.5 1418,306.5C 1316.86,209.697 1216.03,112.531 1115.5,15C 848.833,14.1667 582.166,14.3333 315.5,15.5C 214.845,112.654 114.012,209.654 13,306.5C 12.3333,568.167 12.3333,829.833 13,1091.5C 100.833,1179.33 188.667,1267.17 276.5,1355C 316.833,1355.33 357.167,1355.67 397.5,1356C 395.25,1361.73 393.917,1367.56 393.5,1373.5C 353.165,1373.67 312.832,1373.5 272.5,1373C 181.632,1281.97 90.6321,1191.13 -0.5,1100.5C -0.5,833.5 -0.5,566.5 -0.5,299.5C 103.83,199.837 207.83,99.8365 311.5,-0.5 Z"/></g>
<g><path style="opacity:0.999" fill="#8c1616" d="M 1019.5,763.5 C 1011.6,784.452 996.599,792.952 974.5,789C 967.773,785.801 960.773,783.467 953.5,782C 920.36,781.208 887.693,777.208 855.5,770C 869.598,787.607 886.264,802.107 905.5,813.5C 913.434,819.143 921.767,824.309 930.5,829C 1005.5,829.333 1080.5,829.667 1155.5,830C 1243,917.5 1330.5,1005 1418,1092.5C 1418.67,1343.17 1418.67,1593.83 1418,1844.5C 1317.47,1942.03 1216.64,2039.2 1115.5,2136C 848.833,2136.67 582.167,2136.67 315.5,2136C 214.97,2038.47 114.137,1941.3 13,1844.5C 12.5,1710.5 12.3333,1576.5 12.5,1442.5C 146.5,1442.5 280.5,1442.5 414.5,1442.5C 415.358,1436.95 417.691,1432.12 421.5,1428C 421.272,1427.6 420.938,1427.43 420.5,1427.5C 424.045,1422.79 428.379,1418.96 433.5,1416C 441.667,1411.94 450.001,1408.28 458.5,1405C 461.238,1403.69 462.572,1401.52 462.5,1398.5C 451.347,1399.64 440.181,1400.64 429,1401.5C 414.449,1401.73 403.449,1395.73 396,1383.5C 394.85,1380.23 394.016,1376.9 393.5,1373.5C 393.917,1367.56 395.25,1361.73 397.5,1356C 357.167,1355.67 316.833,1355.33 276.5,1355C 188.667,1267.17 100.833,1179.33 13,1091.5C 12.3333,829.833 12.3333,568.167 13,306.5C 114.012,209.654 214.845,112.654 315.5,15.5C 582.166,14.3333 848.833,14.1667 1115.5,15C 1216.03,112.531 1316.86,209.697 1418,306.5C 1418.5,452.5 1418.67,598.5 1418.5,744.5C 1285.5,744.5 1152.5,744.5 1019.5,744.5C 1020.54,750.81 1020.54,757.143 1019.5,763.5 Z"/></g>
<g><path style="opacity:1" fill="#fdfdfd" d="M 48.5,1479.5 C 181.5,1479.67 314.5,1479.5 447.5,1479C 446.956,1478.28 446.289,1477.78 445.5,1477.5C 437.303,1472.47 431.47,1465.47 428,1456.5C 426.112,1441.37 432.278,1430.87 446.5,1425C 451.091,1423.14 455.757,1421.47 460.5,1420C 474.542,1417.6 488.542,1414.93 502.5,1412C 524.758,1405.97 542.258,1393.47 555,1374.5C 557.805,1370.91 558.805,1366.91 558,1362.5C 552.675,1357.96 546.508,1356.13 539.5,1357C 501.809,1379.26 461.143,1388.92 417.5,1386C 408.97,1381.77 405.803,1374.94 408,1365.5C 412.922,1348.84 420.756,1333.84 431.5,1320.5C 432.043,1320.44 432.376,1320.11 432.5,1319.5C 385.505,1318.5 338.505,1318.17 291.5,1318.5C 210.535,1238.03 129.701,1157.37 49,1076.5C 48.1667,824.833 48.3333,573.166 49.5,321.5C 142.652,232.182 235.652,142.682 328.5,53C 586.087,51.3352 843.754,51.0018 1101.5,52C 1195,142.167 1288.5,232.333 1382,322.5C 1382.5,451.166 1382.67,579.833 1382.5,708.5C 1248.83,708.333 1115.17,708.5 981.5,709C 991.036,719.91 999.202,731.743 1006,744.5C 1009.18,758.29 1004.68,768.457 992.5,775C 989.402,775.918 986.235,776.418 983,776.5C 974.041,773.405 964.874,770.905 955.5,769C 918.768,768.475 882.768,763.142 847.5,753C 840.067,750.412 832.9,747.245 826,743.5C 825.542,746.558 825.876,749.558 827,752.5C 837.13,770.98 849.964,787.48 865.5,802C 873.294,809.061 881.628,815.395 890.5,821C 914.334,835.416 938.001,850.083 961.5,865C 1021.17,865.333 1080.83,865.667 1140.5,866C 1221,946.5 1301.5,1027 1382,1107.5C 1382.67,1348.17 1382.67,1588.83 1382,1829.5C 1287.86,1919.3 1194.03,2009.47 1100.5,2100C 843.833,2100.67 587.167,2100.67 330.5,2100C 236.667,2009.5 142.833,1919 49,1828.5C 48.5,1712.17 48.3333,1595.83 48.5,1479.5 Z"/></g>
<g><path style="opacity:1" fill="#8c1515" d="M 1345.5,337.5 C 1345.5,448.833 1345.5,560.167 1345.5,671.5C 1318.33,671.169 1291.33,671.502 1264.5,672.5C 1157.17,672.667 1049.83,672.5 942.5,672C 907.925,643.825 869.258,622.825 826.5,609C 821.154,606.997 816.487,603.997 812.5,600C 823.943,596.69 835.61,595.69 847.5,597C 862.362,600.739 877.362,601.406 892.5,599C 913.531,591.772 918.364,578.606 907,559.5C 894.364,546.209 879.53,536.042 862.5,529C 846.715,522.274 831.049,515.274 815.5,508C 807.29,502.349 803.957,494.682 805.5,485C 816.46,485.934 827.46,486.268 838.5,486C 852.751,484.418 858.584,476.584 856,462.5C 851.121,451.944 844.288,442.777 835.5,435C 823.718,424.609 811.051,415.442 797.5,407.5C 798.5,406.167 799.5,404.833 800.5,403.5C 799.36,401.922 798.86,400.256 799,398.5C 800.041,400.585 801.541,402.252 803.5,403.5C 821.838,395.476 826.005,382.81 816,365.5C 805.023,354.108 792.857,344.275 779.5,336C 773.922,331.093 769.089,325.593 765,319.5C 764.333,318.167 764.333,316.833 765,315.5C 773.963,308.871 781.963,301.205 789,292.5C 795.506,279.021 791.673,269.854 777.5,265C 772.148,264.479 766.815,263.813 761.5,263C 758.592,262.311 755.925,261.145 753.5,259.5C 752.369,257.926 752.202,256.259 753,254.5C 759.667,249.167 765.667,243.167 771,236.5C 777.299,224.582 774.132,216.082 761.5,211C 749.863,213.269 742.363,208.769 739,197.5C 733.844,176.212 729.011,154.878 724.5,133.5C 719.489,133.334 714.489,133.501 709.5,134C 705.388,135.779 702.222,138.612 700,142.5C 695.082,160.421 690.415,178.421 686,196.5C 684.107,203.519 681.44,210.186 678,216.5C 676.363,218.81 674.196,220.31 671.5,221C 661.487,219.975 653.653,223.475 648,231.5C 645.819,241.286 648.652,249.452 656.5,256C 663.167,261.333 669.833,266.667 676.5,272C 670.683,279.239 664.016,285.573 656.5,291C 643.89,299.278 631.556,307.944 619.5,317C 615.197,321.296 611.697,326.129 609,331.5C 607.952,342.556 612.785,349.723 623.5,353C 626.471,353.794 629.471,354.461 632.5,355C 640.551,355.178 648.551,355.844 656.5,357C 627.928,365.256 603.762,380.423 584,402.5C 579.329,407.832 575.663,413.832 573,420.5C 570.773,431.546 574.94,439.046 585.5,443C 598.504,443.37 611.504,443.203 624.5,442.5C 625.127,451.792 621.794,459.292 614.5,465C 600.768,471.865 586.768,478.198 572.5,484C 556.038,491.461 542.204,502.294 531,516.5C 523.022,533.039 528.188,542.873 546.5,546C 562.176,546.562 577.843,546.896 593.5,547C 603.56,544.202 613.56,541.202 623.5,538C 637.991,534.789 641.491,539.289 634,551.5C 630.451,555.35 626.617,558.85 622.5,562C 572.441,585.852 524.775,613.519 479.5,645C 460.52,657.747 443.687,672.914 429,690.5C 421.257,701.88 420.59,713.547 427,725.5C 432.78,732.871 440.28,735.704 449.5,734C 457.54,730.209 465.873,727.209 474.5,725C 508.986,728.946 542.652,725.279 575.5,714C 583.969,708.677 591.802,702.51 599,695.5C 599.667,700.833 599.667,706.167 599,711.5C 594.436,722.97 588.103,733.303 580,742.5C 567.32,757.185 552.82,769.685 536.5,780C 511.827,793.999 487.827,808.999 464.5,825C 445.31,841.199 432.143,861.365 425,885.5C 416.217,913.863 411.883,942.863 412,972.5C 413.288,985.803 420.454,991.636 433.5,990C 438.786,988.359 443.453,985.692 447.5,982C 467.302,953.439 494.635,941.106 529.5,945C 552.49,944.559 573.157,937.559 591.5,924C 593.167,923.167 594.833,922.333 596.5,921.5C 596.833,922 597.167,922.5 597.5,923C 591.709,941.927 580.042,955.927 562.5,965C 542.609,973.612 523.276,983.279 504.5,994C 493.54,1002.62 484.373,1012.79 477,1024.5C 473.354,1035.25 476.521,1043.08 486.5,1048C 498.276,1048.43 509.943,1049.76 521.5,1052C 554.399,1053.2 584.065,1044.03 610.5,1024.5C 612.25,1032.92 611.083,1040.92 607,1048.5C 600.258,1059.91 591.425,1069.41 580.5,1077C 552.331,1097.26 522.664,1115.26 491.5,1131C 470.957,1144.18 454.124,1161.01 441,1181.5C 438.276,1187.01 435.943,1192.67 434,1198.5C 431.586,1214.08 438.086,1221.24 453.5,1220C 459.713,1218.23 465.713,1215.89 471.5,1213C 480.438,1211.45 489.438,1211.12 498.5,1212C 512.171,1214.33 525.837,1216.67 539.5,1219C 546.536,1219.72 553.536,1219.55 560.5,1218.5C 560.042,1227.2 559.209,1235.87 558,1244.5C 556.021,1248.96 553.187,1252.79 549.5,1256C 529.716,1264.39 510.049,1273.06 490.5,1282C 428.833,1282.67 367.167,1282.67 305.5,1282C 232.816,1208.15 159.483,1134.65 85.5,1061.5C 84.3333,820.167 84.1667,578.834 85,337.5C 171.5,254.333 258,171.167 344.5,88C 591.833,87.3333 839.167,87.3333 1086.5,88C 1173.03,171.034 1259.37,254.2 1345.5,337.5 Z"/></g>
<g><path style="opacity:1" fill="#017663" d="M 943.5,2064.5 C 792.001,2065.5 640.334,2065.83 488.5,2065.5C 503.293,2056.22 516.46,2044.88 528,2031.5C 541.572,2014.03 553.905,1995.7 565,1976.5C 577.023,1960.47 590.523,1945.64 605.5,1932C 615.965,1923.2 626.132,1914.04 636,1904.5C 646.728,1890.67 653.395,1875.01 656,1857.5C 658.565,1844.28 660.232,1830.95 661,1817.5C 662.568,1731.84 662.902,1646.17 662,1560.5C 661.214,1557.42 659.381,1555.25 656.5,1554C 652.833,1553.33 649.167,1553.33 645.5,1554C 639.166,1557.16 633.166,1560.83 627.5,1565C 620.163,1572.67 612.496,1580 604.5,1587C 590.884,1596.21 575.884,1601.87 559.5,1604C 542.865,1605.71 526.198,1607.05 509.5,1608C 466.419,1620.37 427.419,1640.37 392.5,1668C 386.446,1674.05 380.446,1680.05 374.5,1686C 371.5,1688 368.5,1688 365.5,1686C 363.348,1683.53 361.848,1680.7 361,1677.5C 360.161,1668.78 360.495,1660.11 362,1651.5C 368.835,1625.99 377.835,1601.32 389,1577.5C 401.791,1560.37 417.624,1546.87 436.5,1537C 447.723,1532.27 458.39,1526.6 468.5,1520C 478.706,1509 480.206,1496.83 473,1483.5C 469.581,1478.08 465.415,1473.24 460.5,1469C 454.356,1464.85 448.856,1460.02 444,1454.5C 443.333,1451.83 443.333,1449.17 444,1446.5C 448.28,1441.94 453.447,1438.77 459.5,1437C 473.314,1433.41 487.314,1430.74 501.5,1429C 524.868,1422.94 544.701,1411.11 561,1393.5C 566.085,1387 570.418,1380 574,1372.5C 576.794,1358.58 571.627,1349.08 558.5,1344C 549.599,1341.13 540.599,1340.8 531.5,1343C 498.154,1362.5 462.154,1372 423.5,1371.5C 428.297,1351.55 438.297,1334.71 453.5,1321C 470.365,1310.06 488.032,1300.4 506.5,1292C 522.833,1285 539.167,1278 555.5,1271C 566.392,1263.75 572.892,1253.58 575,1240.5C 576.078,1229.85 576.411,1219.18 576,1208.5C 574.001,1200.88 569.168,1198.38 561.5,1201C 554.715,1203.45 547.715,1204.11 540.5,1203C 522.842,1199.14 505.009,1196.64 487,1195.5C 473.674,1195.17 461.341,1198.5 450,1205.5C 450.369,1199.06 452.369,1193.06 456,1187.5C 465.417,1173.42 476.917,1161.25 490.5,1151C 512.965,1138.27 535.298,1125.27 557.5,1112C 572.517,1102.16 587.184,1091.83 601.5,1081C 612.293,1070.58 620.459,1058.41 626,1044.5C 627.39,1036.54 627.723,1028.54 627,1020.5C 624.464,1012.89 619.131,1008.89 611,1008.5C 605.81,1009.34 600.977,1011.18 596.5,1014C 576.611,1028.57 554.278,1036.07 529.5,1036.5C 516.848,1034.84 504.181,1033.17 491.5,1031.5C 497.907,1022.59 505.241,1014.42 513.5,1007C 533.888,996.139 554.555,985.806 575.5,976C 593.89,964.385 606.39,948.219 613,927.5C 614.072,921.859 614.405,916.193 614,910.5C 610.88,903.026 605.38,900.526 597.5,903C 588.037,907.564 579.037,912.897 570.5,919C 558.579,925.118 545.913,928.452 532.5,929C 512.874,927.574 493.874,930.241 475.5,937C 467.997,940.582 460.997,944.915 454.5,950C 447.5,957.667 440.5,965.333 433.5,973C 431.975,974.009 430.308,974.509 428.5,974.5C 427.509,941.117 433.009,908.783 445,877.5C 452.341,860.646 463.174,846.479 477.5,835C 497.833,821.832 518.499,809.165 539.5,797C 566.153,781.015 588.32,760.182 606,734.5C 613.985,721.575 616.985,707.575 615,692.5C 613.194,687.554 610.861,682.888 608,678.5C 605.159,676.496 601.993,675.996 598.5,677C 596.004,678.08 593.67,679.414 591.5,681C 583.864,687.815 575.864,694.148 567.5,700C 549.152,706.031 530.318,709.531 511,710.5C 497.874,708.923 484.707,708.423 471.5,709C 462.301,711.599 453.301,714.766 444.5,718.5C 440.097,717.712 438.097,715.046 438.5,710.5C 439.115,704.27 441.615,698.937 446,694.5C 458.988,680.836 473.155,668.67 488.5,658C 532.879,627.341 579.546,600.341 628.5,577C 636.628,571.206 643.795,564.373 650,556.5C 656.94,545.294 655.774,535.127 646.5,526C 638.614,521.982 630.281,520.648 621.5,522C 614.977,523.397 608.643,525.397 602.5,528C 596.46,529.886 590.293,531.052 584,531.5C 571.176,530.802 558.343,530.302 545.5,530C 544.376,529.751 543.376,529.251 542.5,528.5C 550.773,517.063 561.106,507.896 573.5,501C 589.952,493.941 606.285,486.608 622.5,479C 636.751,468.663 642.251,454.829 639,437.5C 635.299,428.302 628.465,424.635 618.5,426.5C 608.51,427.166 598.51,427.5 588.5,427.5C 589.153,422.997 590.987,418.997 594,415.5C 613.817,392.838 638.317,377.671 667.5,370C 672.05,367.117 675.55,363.284 678,358.5C 679.361,351.723 676.861,346.89 670.5,344C 658.475,340.188 646.142,338.521 633.5,339C 630.257,338.712 627.59,337.378 625.5,335C 627.782,331.714 630.449,328.714 633.5,326C 647.693,317.071 661.36,307.404 674.5,297C 680.742,291.429 686.242,285.262 691,278.5C 693.238,272.985 692.905,267.651 690,262.5C 681.148,255.404 672.481,248.071 664,240.5C 663.517,239.552 663.351,238.552 663.5,237.5C 676.744,238.962 686.578,233.962 693,222.5C 696.22,216.059 698.887,209.392 701,202.5C 705.029,187.096 709.029,171.763 713,156.5C 716.125,170.877 719.459,185.211 723,199.5C 727.913,217.76 739.746,226.927 758.5,227C 752,233.5 745.5,240 739,246.5C 733.066,261.247 737.566,271.413 752.5,277C 759.764,278.704 767.097,280.038 774.5,281C 775.022,281.561 775.355,282.228 775.5,283C 773.27,287.236 770.27,290.903 766.5,294C 760.709,298.122 755.209,302.622 750,307.5C 747.027,312.633 746.694,317.967 749,323.5C 753.262,332.176 759.096,339.676 766.5,346C 775.99,353.245 785.656,360.245 795.5,367C 799.422,370.251 802.588,374.084 805,378.5C 806.041,381.636 805.207,384.136 802.5,386C 793.381,389.303 785.547,394.47 779,401.5C 774.737,409.384 776.57,415.551 784.5,420C 807.154,430.08 825.654,445.247 840,465.5C 840.49,466.793 840.657,468.127 840.5,469.5C 829.158,470.59 817.825,470.256 806.5,468.5C 794.468,469.544 788.801,476.211 789.5,488.5C 789.593,503.857 796.26,515.357 809.5,523C 828.167,531.333 846.833,539.667 865.5,548C 871.764,551.27 877.764,554.936 883.5,559C 888,562.167 891.833,566 895,570.5C 898.465,578.734 895.632,583.234 886.5,584C 879.167,584.667 871.833,584.667 864.5,584C 846.118,579.561 827.785,579.561 809.5,584C 795.786,586.265 791.619,593.765 797,606.5C 804.128,614.938 812.961,621.104 823.5,625C 882.446,645.045 932.612,678.212 974,724.5C 979.723,731.891 985.056,739.557 990,747.5C 990.667,750.833 990.667,754.167 990,757.5C 988.745,759.594 986.912,760.594 984.5,760.5C 975.523,756.755 966.189,754.255 956.5,753C 923.62,752.546 891.286,748.213 859.5,740C 848.645,736.829 838.311,732.495 828.5,727C 820.089,723.314 813.922,725.481 810,733.5C 808.232,745.995 810.566,757.661 817,768.5C 833.747,793.915 854.581,815.415 879.5,833C 901.001,846.252 922.668,859.252 944.5,872C 962.068,885.228 975.568,901.728 985,921.5C 993.329,943.809 997.996,966.809 999,990.5C 998.097,991.701 996.931,992.535 995.5,993C 990.096,993.772 984.762,993.439 979.5,992C 969.52,987.369 959.52,982.702 949.5,978C 938.362,975.132 927.362,971.799 916.5,968C 892.245,958.47 867.912,949.137 843.5,940C 831.39,938.971 821.89,943.471 815,953.5C 813.632,956.738 813.299,960.072 814,963.5C 820.789,988.92 835.622,1008.09 858.5,1021C 880.217,1030.36 901.217,1041.02 921.5,1053C 931.255,1060.08 940.422,1067.92 949,1076.5C 952.46,1079.76 953.96,1083.76 953.5,1088.5C 951.354,1088.88 949.187,1089.21 947,1089.5C 938.18,1086.06 929.014,1084.39 919.5,1084.5C 909.416,1085.35 899.416,1086.85 889.5,1089C 877.484,1090.54 865.817,1089.21 854.5,1085C 841.941,1078.63 828.775,1074.13 815,1071.5C 805.383,1071.41 801.383,1076.08 803,1085.5C 811.044,1107.09 824.877,1123.92 844.5,1136C 871.178,1154.68 899.178,1171.35 928.5,1186C 962.476,1207.68 984.643,1238.18 995,1277.5C 996.89,1283.01 997.724,1288.68 997.5,1294.5C 988.7,1292.43 981.033,1288.27 974.5,1282C 968.49,1279 962.157,1277 955.5,1276C 923.11,1281.51 896.11,1272.17 874.5,1248C 862.771,1242.79 855.938,1246.62 854,1259.5C 851.963,1273.49 853.963,1286.82 860,1299.5C 862.804,1304.6 866.637,1308.77 871.5,1312C 892.084,1321.19 912.751,1330.19 933.5,1339C 948.477,1345.48 962.477,1353.48 975.5,1363C 991.03,1376.56 1001.03,1393.39 1005.5,1413.5C 967.37,1414.84 932.037,1405.67 899.5,1386C 884.1,1380.37 870.6,1383.21 859,1394.5C 853.009,1403.78 853.009,1413.12 859,1422.5C 874.367,1445.95 895.534,1461.78 922.5,1470C 939.799,1472.39 956.799,1476.06 973.5,1481C 978.446,1482.72 982.613,1485.55 986,1489.5C 988.94,1498.7 987.274,1507.03 981,1514.5C 976.333,1519.83 971.667,1525.17 967,1530.5C 961.887,1542.74 963.554,1554.08 972,1564.5C 974.5,1567 977,1569.5 979.5,1572C 1000.52,1582.02 1019.02,1595.52 1035,1612.5C 1037.33,1615.83 1039.67,1619.17 1042,1622.5C 1056.28,1653.34 1066.11,1685.51 1071.5,1719C 1071.9,1723.69 1070.9,1728.03 1068.5,1732C 1061.28,1733.4 1054.62,1732.07 1048.5,1728C 1023.57,1712.73 998.899,1697.06 974.5,1681C 954.94,1669.26 933.94,1661.26 911.5,1657C 886.497,1657.23 861.497,1657.56 836.5,1658C 821.013,1654.42 807.346,1647.42 795.5,1637C 780.407,1628.46 770.907,1632.63 767,1649.5C 766.333,1717.17 766.333,1784.83 767,1852.5C 767.121,1885.99 775.787,1916.99 793,1945.5C 800.388,1955.89 808.888,1965.39 818.5,1974C 835.5,1985 852.5,1996 869.5,2007C 883.191,2019.69 896.525,2032.69 909.5,2046C 920.088,2053.46 931.421,2059.63 943.5,2064.5 Z"/></g>
<g><path style="opacity:1" fill="#982f2e" d="M 1345.5,337.5 C 1346.5,448.999 1346.83,560.665 1346.5,672.5C 1319.17,672.5 1291.83,672.5 1264.5,672.5C 1291.33,671.502 1318.33,671.169 1345.5,671.5C 1345.5,560.167 1345.5,448.833 1345.5,337.5 Z"/></g>
<g><path style="opacity:0.987" fill="#fefdfd" d="M 905.5,813.5 C 992.501,813.333 1079.5,813.5 1166.5,814C 1257.37,905.035 1348.37,995.868 1439.5,1086.5C 1439.5,1342.17 1439.5,1597.83 1439.5,1853.5C 1335.47,1953.86 1231.47,2054.19 1127.5,2154.5C 855.5,2154.5 583.5,2154.5 311.5,2154.5C 208.134,2053.47 104.134,1953.13 -0.5,1853.5C -0.5,1711.5 -0.5,1569.5 -0.5,1427.5C 139.833,1427.5 280.167,1427.5 420.5,1427.5C 420.938,1427.43 421.272,1427.6 421.5,1428C 417.691,1432.12 415.358,1436.95 414.5,1442.5C 280.5,1442.5 146.5,1442.5 12.5,1442.5C 12.3333,1576.5 12.5,1710.5 13,1844.5C 114.137,1941.3 214.97,2038.47 315.5,2136C 582.167,2136.67 848.833,2136.67 1115.5,2136C 1216.64,2039.2 1317.47,1942.03 1418,1844.5C 1418.67,1593.83 1418.67,1343.17 1418,1092.5C 1330.5,1005 1243,917.5 1155.5,830C 1080.5,829.667 1005.5,829.333 930.5,829C 921.767,824.309 913.434,819.143 905.5,813.5 Z"/></g>
<g><path style="opacity:1" fill="#a34544" d="M 1125.5,902.5 C 1081.66,902.168 1038,902.501 994.5,903.5C 993.957,903.44 993.624,903.107 993.5,902.5C 1037.66,901.169 1081.66,901.169 1125.5,902.5 Z"/></g>
<g><path style="opacity:1" fill="#8c1515" d="M 1125.5,902.5 C 1198.83,975.334 1272.33,1048.67 1346,1122.5C 1346.67,1352.83 1346.67,1583.17 1346,1813.5C 1259.5,1896.67 1173,1979.83 1086.5,2063C 1054.81,2063.92 1023.14,2063.59 991.5,2062C 962.856,2057.01 936.856,2046.01 913.5,2029C 908.333,2023.17 903.167,2017.33 898,2011.5C 890.833,2005 883.667,1998.5 876.5,1992C 861.668,1982.42 846.668,1973.08 831.5,1964C 809.276,1945.41 794.776,1921.91 788,1893.5C 785.39,1880.97 783.723,1868.31 783,1855.5C 782.333,1787.17 782.333,1718.83 783,1650.5C 783.414,1650.04 783.914,1649.71 784.5,1649.5C 791.698,1654.53 799.031,1659.36 806.5,1664C 821.128,1672.07 836.795,1675.57 853.5,1674.5C 871.8,1672.89 890.133,1672.39 908.5,1673C 928.036,1676.29 946.369,1682.96 963.5,1693C 987.5,1708.33 1011.5,1723.67 1035.5,1739C 1041.93,1742.55 1048.6,1745.55 1055.5,1748C 1077.38,1750.62 1088.05,1740.79 1087.5,1718.5C 1085.07,1699.79 1080.91,1681.46 1075,1663.5C 1069.73,1648.34 1064.06,1633.34 1058,1618.5C 1045.78,1597.95 1029.28,1581.78 1008.5,1570C 1001.83,1566.33 995.167,1562.67 988.5,1559C 982.781,1554.07 979.948,1547.9 980,1540.5C 980.667,1539.17 981.333,1537.83 982,1536.5C 992.191,1528.31 999.191,1517.98 1003,1505.5C 1005.85,1486.04 998.015,1472.87 979.5,1466C 962.762,1461.12 945.762,1457.45 928.5,1455C 905.604,1448.65 887.437,1435.82 874,1416.5C 868.194,1408.83 869.694,1403.33 878.5,1400C 882.5,1399.33 886.5,1399.33 890.5,1400C 926.977,1421.29 966.311,1430.95 1008.5,1429C 1019.22,1425.74 1023.38,1418.57 1021,1407.5C 1013.23,1377.08 995.727,1354.25 968.5,1339C 940.547,1324.36 911.88,1311.36 882.5,1300C 874.551,1294.6 870.384,1287.1 870,1277.5C 869.333,1273.5 869.333,1269.5 870,1265.5C 883.265,1279.38 899.431,1287.88 918.5,1291C 931.88,1291.1 945.213,1291.76 958.5,1293C 961.376,1293.44 964.043,1294.44 966.5,1296C 973.997,1302.75 982.664,1307.42 992.5,1310C 1007.1,1312.06 1014.1,1305.73 1013.5,1291C 1006.63,1249.93 987.965,1215.26 957.5,1187C 949.686,1180.59 941.353,1174.92 932.5,1170C 897.215,1152.79 864.381,1131.96 834,1107.5C 829.249,1101.91 825.082,1095.91 821.5,1089.5C 821.667,1089.17 821.833,1088.83 822,1088.5C 832.761,1093.13 843.594,1097.63 854.5,1102C 866.989,1105.17 879.655,1106.17 892.5,1105C 901.908,1102.86 911.408,1101.36 921,1100.5C 927.925,1100.19 934.425,1101.69 940.5,1105C 950.044,1106.66 958.544,1104.49 966,1098.5C 972.13,1089.35 971.796,1080.35 965,1071.5C 953.63,1057.23 940.13,1045.4 924.5,1036C 904.81,1025.49 884.81,1015.49 864.5,1006C 845.753,995.439 834.42,979.772 830.5,959C 834.091,956.195 838.091,955.195 842.5,956C 876.433,970.645 911.1,983.311 946.5,994C 953.626,997.397 960.626,1001.06 967.5,1005C 977.79,1009.19 988.457,1010.53 999.5,1009C 1010.41,1005.02 1015.75,997.185 1015.5,985.5C 1012.87,956.994 1005.87,929.661 994.5,903.5C 1038,902.501 1081.66,902.168 1125.5,902.5 Z"/></g>
<g><path style="opacity:1" fill="#b26363" d="M 291.5,1318.5 C 338.505,1318.17 385.505,1318.5 432.5,1319.5C 432.376,1320.11 432.043,1320.44 431.5,1320.5C 384.833,1319.83 338.167,1319.17 291.5,1318.5 Z"/></g>
<g><path style="opacity:1" fill="#aa5252" d="M 445.5,1477.5 C 446.289,1477.78 446.956,1478.28 447.5,1479C 314.5,1479.5 181.5,1479.67 48.5,1479.5C 180.833,1478.83 313.167,1478.17 445.5,1477.5 Z"/></g>
<g><path style="opacity:1" fill="#8c1515" d="M 84.5,1515.5 C 204.167,1515.33 323.834,1515.5 443.5,1516C 418.658,1526.51 397.492,1542.01 380,1562.5C 375.576,1568.34 371.909,1574.68 369,1581.5C 359.2,1605.23 351.2,1629.57 345,1654.5C 342.821,1668.22 344.821,1681.22 351,1693.5C 357.923,1702.04 366.756,1704.88 377.5,1702C 380.167,1700.67 382.833,1699.33 385.5,1698C 398.067,1683.09 412.734,1670.76 429.5,1661C 454.878,1645.14 481.878,1632.81 510.5,1624C 534.073,1623.26 557.406,1620.6 580.5,1616C 602.224,1609.61 620.224,1597.61 634.5,1580C 638.052,1576.78 641.885,1573.95 646,1571.5C 646.667,1646.83 646.667,1722.17 646,1797.5C 645.779,1822.61 642.445,1847.28 636,1871.5C 633.803,1878.23 630.803,1884.56 627,1890.5C 607.364,1908.47 588.031,1926.8 569,1945.5C 564.667,1950.83 560.333,1956.17 556,1961.5C 543.23,1983.6 528.897,2004.6 513,2024.5C 493.015,2048.08 467.515,2060.91 436.5,2063C 405.833,2063.67 375.167,2063.67 344.5,2063C 258.622,1979.29 172.289,1896.12 85.5,1813.5C 84.5,1714.17 84.1667,1614.84 84.5,1515.5 Z"/></g>
<g><path style="opacity:1" fill="#68aea2" d="M 943.5,2064.5 C 944.473,2064.99 945.473,2065.49 946.5,2066C 793.097,2066.83 640.43,2066.67 488.5,2065.5C 640.334,2065.83 792.001,2065.5 943.5,2064.5 Z"/></g>
</svg>
